Coordinates
version=1
nRows=22
nColumns=24
inDegrees=yes

Units are S.I. units (second, meters, Newtons, ...)
Angles are in degrees.

endheader
time	pelvis_tilt	pelvis_list	pelvis_rotation	pelvis_tx	pelvis_ty	pelvis_tz	hip_flexion_r	hip_adduction_r	hip_rotation_r	knee_angle_r	ankle_angle_r	subtalar_angle_r	mtp_angle_r	hip_flexion_l	hip_adduction_l	hip_rotation_l	knee_angle_l	ankle_angle_l	subtalar_angle_l	mtp_angle_l	lumbar_extension	lumbar_bending	lumbar_rotation
      0.47900000	     -3.12064086	      0.68283050	      0.88735045	     -0.78396755	      1.00482924	      0.29524118	     18.82148442	     -0.01310937	     -4.08181925	      2.79923584	      2.32971285	     -5.28180971	      0.22219799	     -9.44033017	      5.32067414	     12.60403286	    -11.11684490	     10.35759204	    -12.32575733	     -0.40405149	     -7.94807729	      9.15251471	    -10.17140416
      0.48316667	     -3.12051252	      0.63314206	      0.86436874	     -0.77832500	      1.00413085	      0.29568255	     18.68914564	      0.11956931	     -3.73070833	      2.98430134	      2.04978379	     -5.35806109	      0.38538524	     -9.60895862	      5.24221579	     12.36629903	    -11.48195084	     10.48440184	    -11.93654591	     -0.73334066	     -7.93701961	      9.19000356	     -9.97442736
      0.48733333	     -3.16935214	      0.59569386	      0.82882437	     -0.77269676	      1.00336885	      0.29613516	     18.63837229	      0.23733290	     -3.33774445	      3.03936075	      1.74919102	     -5.45832691	      0.56255547	     -9.71150035	      5.18645975	     12.15775806	    -11.87620521	     10.61360075	    -11.60301233	     -0.99301880	     -7.85841774	      9.23105894	     -9.87185089
      0.49150000	     -3.16020047	      0.51929162	      0.78223409	     -0.76701701	      1.00271849	      0.29659688	     18.52758485	      0.39780157	     -2.94652166	      3.01634916	      1.41053975	     -5.59735313	      0.71844265	     -9.87027147	      5.09095232	     11.91882928	    -12.28074768	     10.69270639	    -11.28504065	     -1.14473827	     -7.85203486	      9.31712564	     -9.73566964
      0.49566667	     -3.17748693	      0.42470756	      0.72504585	     -0.76133081	      1.00204400	      0.29709873	     18.45939447	      0.58017349	     -2.50933537	      2.90110230	      1.02743838	     -5.85422256	      0.88703129	     -9.98205694	      4.97830668	     11.65781534	    -12.72601609	     10.78905227	    -10.94380244	     -1.23484023	     -7.81951947	      9.40920540	     -9.58445002
      0.49983333	     -3.16196694	      0.30490101	      0.66130788	     -0.75560459	      1.00144516	      0.29760728	     18.35838262	      0.78963014	     -2.06983708	      2.71986799	      0.61460872	     -6.15782661	      1.04859371	    -10.11522411	      4.84022391	     11.36667600	    -13.19638582	     10.86142908	    -10.59328156	     -1.25843154	     -7.81873213	      9.54214045	     -9.42762364
      0.50400000	     -3.14825651	      0.17746977	      0.59124158	     -0.74987347	      1.00086844	      0.29812767	     18.27456870	      1.00846134	     -1.61962960	      2.45697289	      0.17639159	     -6.53790657	      1.21048315	    -10.21977613	      4.69886678	     11.05826197	    -13.71992191	     10.90468240	    -10.25270210	     -1.21900747	     -7.81568463	      9.68636418	     -9.26198385
      0.50816667	     -3.15101190	      0.02693471	      0.51446912	     -0.74412233	      1.00027833	      0.29866582	     18.22366334	      1.25276811	     -1.16785828	      2.11540174	     -0.27506029	     -6.96542180	      1.37764257	    -10.27847931	      4.53587408	     10.71749850	    -14.30256011	     10.94781646	     -9.89995688	     -1.11441748	     -7.79311536	      9.85424258	     -9.08762718
      0.51233333	     -3.13249169	     -0.13457366	      0.43061509	     -0.73834841	      0.99975919	      0.29921741	     18.15950813	      1.51113791	     -0.72175897	      1.71396961	     -0.74202363	     -7.43904847	      1.54116886	    -10.33694909	      4.36313385	     10.35663373	    -14.92027178	     10.95539716	     -9.54808283	     -0.94701836	     -7.79618148	     10.04106036	     -8.90811698
      0.51650000	     -3.11661935	     -0.30968540	      0.34087404	     -0.73256507	      0.99924626	      0.29978114	     18.11650905	      1.78585730	     -0.29406375	      1.24090205	     -1.20365049	     -7.94509100	      1.70553875	    -10.36629737	      4.17890731	      9.97426520	    -15.59723041	     10.93371496	     -9.20169494	     -0.70809803	     -7.79510951	     10.24302106	     -8.72410085
      0.52066667	     -3.10663453	     -0.50276203	      0.24799210	     -0.72677831	      0.99875477	      0.30035644	     18.09621668	      2.08119563	      0.11234750	      0.70484408	     -1.64742190	     -8.46833444	      1.86315138	    -10.35101964	      3.97706248	      9.56859097	    -16.34291211	     10.89169033	     -8.85128305	     -0.40387729	     -7.79082791	     10.45946496	     -8.53953435
      0.52483333	     -3.07097028	     -0.70594896	      0.15938385	     -0.72098180	      0.99831720	      0.30091849	     18.06505858	      2.38553670	      0.47220042	      0.10984681	     -2.07751169	     -9.02198946	      3.64731558	    -10.33632949	      3.76487884	      9.16306177	    -17.12980932	     10.72999038	     -8.57597882	      3.78465436	     -7.81324058	     10.72281148	     -8.42474343
      0.52900000	     -3.07032718	     -0.90398337	      0.05632197	     -0.71519132	      0.99786658	      0.30149856	     18.09802870	      2.68806097	      0.80816901	     -0.56270373	     -2.43506259	     -9.47675284	      3.65836390	    -10.24540005	      3.56364824	      8.73648726	    -17.99256690	     10.56193132	     -8.27781127	      3.86349006	     -7.80355863	     10.93682442	     -8.18571986
      0.53316667	     -3.04739470	     -1.11569844	     -0.04594479	     -0.70940271	      0.99745696	      0.30209675	     18.11661211	      3.00776884	      1.12604621	     -1.27458374	     -2.74997618	     -9.97786116	      3.66603029	    -10.13898893	      3.34283038	      8.27289968	    -18.92919800	     10.40138125	     -7.93505709	      4.02596620	     -7.82051513	     11.18245497	     -8.00923987
      0.53733333	     -2.99487588	     -1.35818809	     -0.11643265	     -0.70360060	      0.99713742	      0.30265327	     18.09502135	      3.35114424	      1.37759892	     -1.98616966	     -3.06236077	    -10.52212985	      3.67567014	    -10.02034723	      3.07935927	      7.81739222	    -19.94145462	     10.21093180	     -7.52595854	      4.52323585	     -7.87097066	     11.48519609	     -7.82548007
      0.54150000	     -3.01167012	     -1.55375851	     -0.22831493	     -0.69785816	      0.99672629	      0.30326296	     18.21474354	      3.65733174	      1.61891586	     -2.84887828	     -3.25034809	    -10.95380014	      3.67323685	     -9.79034300	      2.87538086	      7.34489355	    -21.00830309	      9.93947126	     -7.19480816	      4.96985191	     -7.85202313	     11.71070439	     -7.63633632
      0.54566667	     -2.99054882	     -1.77641621	     -0.32579057	     -0.69211780	      0.99638164	      0.30386347	     18.28169061	      3.98824922	      1.82745838	     -3.69829689	     -3.37080939	    -11.36641433	      3.65905541	     -9.54843786	      2.62754596	      6.82065502	    -22.17295167	      9.62766737	     -6.79611313	      5.55259770	     -7.87819099	     11.98050986	     -7.45824238
      0.54983333	     -2.94491868	     -2.01378022	     -0.41792225	     -0.68635949	      0.99610743	      0.30448619	     18.29879268	      4.33801732	      2.07126340	     -4.51713271	     -3.41792126	    -11.85050093	      3.41943853	     -9.30982551	      2.35821852	      6.31755327	    -23.35443776	      9.10316658	     -6.60364678	     11.37152222	     -7.93472417	     12.25699339	     -7.34683296
      0.55400000	     -2.92274711	     -2.22181810	     -0.51617006	     -0.68063513	      0.99582512	      0.30507633	     18.39523654	      4.64887460	      2.17303246	     -5.45812815	     -3.29769606	    -11.99369679	      3.41284684	     -8.99969909	      2.11808834	      5.80232424	    -24.61579856	      8.57998232	     -6.30615088	     11.46834784	     -7.95820067	     12.48842792	     -7.18740204
      0.55816667	     -2.90052457	     -2.44580989	     -0.58901050	     -0.67494741	      0.99554810	      0.30564799	     18.49547932	      4.97157526	      2.23620861	     -6.41601157	     -3.15987165	    -12.23388665	      3.38924797	     -8.63299906	      1.84240597	      5.28134969	    -25.97307328	      8.06761323	     -5.88828324	     11.70479516	     -7.99628458	     12.76463996	     -7.01846043
      0.56233333	     -2.87984186	     -2.70017795	     -0.62314103	     -0.66922942	      0.99530620	      0.30618904	     18.56147311	      5.31348360	      2.26218060	     -7.31529642	     -2.90222009	    -12.42349609	      3.31542594	     -8.22082886	      1.51085584	      4.76276572	    -27.39795160	      7.48783348	     -5.45802462	     12.35462834	     -8.01099929	     13.06175891	     -6.85461253
      0.56650000	     -2.84431791	     -2.91546860	     -0.68381792	     -0.66357784	      0.99509386	      0.30676821	     18.64080846	      5.62125209	      2.28035895	     -8.27956722	     -2.56036660	    -12.52916779	      3.22306846	     -7.79477243	      1.21822479	      4.24109985	    -28.85200712	      6.76312426	     -5.08345313	     13.12517918	     -8.06385089	     13.30462676	     -6.69987880
